<?xml version="1.0" encoding="utf-8"?>
<!-- Generator: Adobe Illustrator 25.0.1, SVG Export Plug-In . SVG Version: 6.00 Build 0)  -->
<svg version="1.1" id="Layer_1" xmlns="http://www.w3.org/2000/svg" xmlns:xlink="http://www.w3.org/1999/xlink" x="0px" y="0px"
	 viewBox="0 0 180.1 155.8" style="enable-background:new 0 0 180.1 155.8;" xml:space="preserve">
<style type="text/css">
	.st0{opacity:0.7;fill:#0F7B65;}
</style>
<g>
	<defs>
		<rect id="SVGID_1_" x="-761.4" y="-632.4" width="1366" height="900"/>
	</defs>
	<clipPath id="SVGID_2_">
		<use xlink:href="#SVGID_1_"  style="overflow:visible;"/>
	</clipPath>
</g>
<path class="st0" d="M0,16.7C0.1,12.4,1,8.2,3.8,5c3.6-4.1,9.5-5.5,14.9-4.9S29.1,3,34,5.2C75.5,24,117.7,41.4,160.3,57.3
	c5.9,2.2,12.2,4.6,16.1,9.6c4.9,6.1,4.9,15.6,0,21.7c-3.7,4.6-9.3,7.1-14.8,9.4c-23.5,9.8-47,19.7-70.4,29.5
	c-20.1,8.4-40.2,16.8-60.6,24.5c-5.7,2.1-11.7,4.3-17.7,3.6c-14.1-1.5-13.8-14.5-12.1-25.4c1.3-8.4,3-16.7,5.1-24.9
	c0.5-2.1,5.5-22.7,6.5-22.7c20.2,0,40.3,0,60.5,0c3.4,0,8-1,8.1-4.5c0.1-3.5-4.6-4.6-8.2-4.7c-19.9,0-39.9-0.1-59.8-0.1
	C7.9,57.2,2.8,40.9,0.5,24.1C0.2,21.7,0,19.2,0,16.7z"/>
</svg>
